<svg xmlns="http://www.w3.org/2000/svg" viewBox="0 0 131.36 21"><defs><style>.cls-1{isolation:isolate;}.cls-2{fill:#5d6971;}.cls-3{fill:#0d73bb;}</style></defs><title>Asset 1</title><g id="Layer_2" data-name="Layer 2"><g id="Layer_1-2" data-name="Layer 1"><g id="_Group_" data-name="&lt;Group&gt;"><g id="_Group_2" data-name="&lt;Group&gt;"><g id="_Group_3" data-name="&lt;Group&gt;"><g id="_Group_4" data-name="&lt;Group&gt;"><g id="_Group_5" data-name="&lt;Group&gt;"><g class="cls-1"><path class="cls-2" d="M18.36,9.2c-.4-.2-.9-.3-1.4-.5a7.84,7.84,0,0,0-1.4-.2,4.64,4.64,0,0,0-2.1.4,9.06,9.06,0,0,0-1.6,1.1,9.5,9.5,0,0,0-1,1.7,7.8,7.8,0,0,0-.3,2.2,6.65,6.65,0,0,0,.3,2.1,4.61,4.61,0,0,0,.9,1.7,4.43,4.43,0,0,0,1.5,1.2,4.48,4.48,0,0,0,2,.4,7.72,7.72,0,0,0,1.5-.2,8.33,8.33,0,0,0,1.5-.4l.2,1.5a12.44,12.44,0,0,1-1.6.4,9.15,9.15,0,0,1-1.7.1,6.09,6.09,0,0,1-2.8-.6,7.49,7.49,0,0,1-2-1.5,7.76,7.76,0,0,1-1.2-2.2,7.46,7.46,0,0,1-.4-2.6,8.68,8.68,0,0,1,.5-2.8,6.11,6.11,0,0,1,1.3-2.2,6,6,0,0,1,2.1-1.4,7.64,7.64,0,0,1,2.7-.5,11.18,11.18,0,0,1,3.2.5Z"/><path class="cls-2" d="M20.66,11.4a5.61,5.61,0,0,1,3-3.7,6.09,6.09,0,0,1,2.8-.6,6.09,6.09,0,0,1,2.8.6,5.61,5.61,0,0,1,3,3.7,10.87,10.87,0,0,1,.4,2.6,7.46,7.46,0,0,1-.4,2.6,7.56,7.56,0,0,1-1.1,2.2,5.75,5.75,0,0,1-1.9,1.5,6.09,6.09,0,0,1-2.8.6,6.09,6.09,0,0,1-2.8-.6,5.61,5.61,0,0,1-3-3.7,10.87,10.87,0,0,1-.4-2.6A7.83,7.83,0,0,1,20.66,11.4Zm1.7,4.8a7.5,7.5,0,0,0,.8,1.8,4.07,4.07,0,0,0,1.4,1.2,3.81,3.81,0,0,0,1.9.4,4.06,4.06,0,0,0,1.9-.4,5.26,5.26,0,0,0,1.4-1.2,4.94,4.94,0,0,0,.8-1.8,7.61,7.61,0,0,0,.3-2.1,6.65,6.65,0,0,0-.3-2.1,7.5,7.5,0,0,0-.8-1.8A4.07,4.07,0,0,0,28.36,9a3.81,3.81,0,0,0-1.9-.4,4.06,4.06,0,0,0-1.9.4,5.26,5.26,0,0,0-1.4,1.2,4.94,4.94,0,0,0-.8,1.8,7.5,7.5,0,0,0,0,4.2Z"/><path class="cls-2" d="M35.66,10.5V9a9.15,9.15,0,0,0-.1-1.6h1.6V9.7h.1a4.05,4.05,0,0,1,.5-.9,6.47,6.47,0,0,1,.8-.9,2.28,2.28,0,0,1,1.2-.6,4.68,4.68,0,0,1,1.7-.2,4.64,4.64,0,0,1,2.1.4A3.81,3.81,0,0,1,45,8.6a4,4,0,0,1,.8,1.6,6.48,6.48,0,0,1,.2,2v8.4h-1.6v-8a5.56,5.56,0,0,0-.7-3,2.55,2.55,0,0,0-2.4-1.1,3.81,3.81,0,0,0-1.9.4,4.26,4.26,0,0,0-1.2,1.1,4,4,0,0,0-.6,1.5,9.85,9.85,0,0,0-.2,1.7v7.3h-1.6v-10Z"/><path class="cls-2" d="M55.66,8.8h-3v8.5a2.41,2.41,0,0,0,.4,1.5,1.56,1.56,0,0,0,1.4.6,2,2,0,0,0,.8-.1c.2-.1.5-.1.7-.2l.1,1.3a1.88,1.88,0,0,1-.8.2,4.48,4.48,0,0,1-1.1.1,4,4,0,0,1-1.7-.3,2,2,0,0,1-.9-.9,3.19,3.19,0,0,1-.3-1.4c0-.5-.1-1.1-.1-1.7V8.7h-2.6V7.3h2.6V4.1l1.6-.6V7.2h3V8.8Z"/><path class="cls-2" d="M66.16,18.5h0a3.92,3.92,0,0,1-.8,1,3.92,3.92,0,0,1-1,.8,6.12,6.12,0,0,1-1.2.5A5,5,0,0,1,62,21a4.56,4.56,0,0,1-2.2-.4,3.45,3.45,0,0,1-1.3-1,3.38,3.38,0,0,1-.6-1.2,5.16,5.16,0,0,1-.2-1.1,4,4,0,0,1,.8-2.6,4.83,4.83,0,0,1,2-1.4,11,11,0,0,1,2.6-.6,25.28,25.28,0,0,1,2.7-.1h.3v-.7a3.56,3.56,0,0,0-.7-2.5c-.4-.6-1.2-.8-2.3-.8a12.31,12.31,0,0,0-2,.2,7.71,7.71,0,0,0-1.9.8V8a9.43,9.43,0,0,1,.9-.3c.3-.1.7-.2,1-.3s.7-.1,1-.2a3.4,3.4,0,0,1,1-.1,4.49,4.49,0,0,1,3.5,1.2,5.45,5.45,0,0,1,1.1,3.7v7.2a5.7,5.7,0,0,0,.1,1.3h-1.6v-2ZM66,14h-.5a17,17,0,0,0-2.2.1,11.8,11.8,0,0,0-2,.4,3.07,3.07,0,0,0-1.5,1,2.35,2.35,0,0,0-.6,1.7A2,2,0,0,0,60,19a3,3,0,0,0,1.9.5,4.47,4.47,0,0,0,2.2-.5,4.89,4.89,0,0,0,1.2-1.3,2.93,2.93,0,0,0,.4-1.6,6.64,6.64,0,0,0,.1-1.3V14Z"/><path class="cls-2" d="M80.06,9.2c-.4-.2-.9-.3-1.4-.5a7.84,7.84,0,0,0-1.4-.2,4.64,4.64,0,0,0-2.1.4,9.06,9.06,0,0,0-1.6,1.1,9.5,9.5,0,0,0-1,1.7,7.8,7.8,0,0,0-.3,2.2,6.65,6.65,0,0,0,.3,2.1,4.61,4.61,0,0,0,.9,1.7A4.43,4.43,0,0,0,75,18.9a4.48,4.48,0,0,0,2,.4,7.72,7.72,0,0,0,1.5-.2,8.33,8.33,0,0,0,1.5-.4l.2,1.5a12.44,12.44,0,0,1-1.6.4,9.15,9.15,0,0,1-1.7.1,6.09,6.09,0,0,1-2.8-.6,7.49,7.49,0,0,1-2-1.5,7.76,7.76,0,0,1-1.2-2.2,7.46,7.46,0,0,1-.4-2.6A8.68,8.68,0,0,1,71,11a6.11,6.11,0,0,1,1.3-2.2,6,6,0,0,1,2.1-1.4,7.64,7.64,0,0,1,2.7-.5,11.18,11.18,0,0,1,3.2.5Z"/><path class="cls-2" d="M88.66,8.8h-3v8.5a2.41,2.41,0,0,0,.4,1.5,1.56,1.56,0,0,0,1.4.6,2,2,0,0,0,.8-.1c.2-.1.5-.1.7-.2l.1,1.3a1.88,1.88,0,0,1-.8.2,4.48,4.48,0,0,1-1.1.1,4,4,0,0,1-1.7-.3,2,2,0,0,1-.9-.9,3.19,3.19,0,0,1-.3-1.4c0-.5-.1-1.1-.1-1.7V8.7h-2.6V7.3h2.6V4.1l1.6-.6V7.2h3V8.8Z"/></g><g class="cls-1"><path class="cls-3" d="M91.56,1.2h1.6V9.6h.1a4.55,4.55,0,0,1,1.6-1.8,4.09,4.09,0,0,1,2.5-.7,4.81,4.81,0,0,1,2.2.4A4.07,4.07,0,0,1,101,8.7a4.84,4.84,0,0,1,.7,1.8,15,15,0,0,1,.2,2.2v7.9h-1.6V12.8a8.08,8.08,0,0,0-.1-1.6,4,4,0,0,0-.4-1.3,2,2,0,0,0-.9-.9,3.81,3.81,0,0,0-1.6-.3,3.5,3.5,0,0,0-3,1.7,7.74,7.74,0,0,0-.7,1.6,11,11,0,0,0-.2,1.8v7h-1.6V1.2Z"/><path class="cls-3" d="M116.16,17.5V19a9.15,9.15,0,0,0,.1,1.6h-1.6V18.3h-.1a4.05,4.05,0,0,1-.5.9,6.47,6.47,0,0,1-.8.9,2.28,2.28,0,0,1-1.2.6,8.81,8.81,0,0,1-1.7.2,4.64,4.64,0,0,1-2.1-.4,3.81,3.81,0,0,1-1.4-1.1,4,4,0,0,1-.8-1.6,6.48,6.48,0,0,1-.2-2V7.4h1.6v8a5.56,5.56,0,0,0,.7,3,2.78,2.78,0,0,0,2.4,1.1,3.81,3.81,0,0,0,1.9-.4,4.26,4.26,0,0,0,1.2-1.1,4.71,4.71,0,0,0,.6-1.5,9.85,9.85,0,0,0,.2-1.7V7.5h1.6v10Z"/><path class="cls-3" d="M120.06,1.2h1.6V9.6h.1a5.74,5.74,0,0,1,.4-.7,3,3,0,0,1,.8-.8,3.46,3.46,0,0,1,1.2-.7,4.31,4.31,0,0,1,1.7-.3,6.18,6.18,0,0,1,2.5.5,3.91,3.91,0,0,1,1.7,1.4,6.39,6.39,0,0,1,1,2.2,12,12,0,0,1,.3,2.8,11.15,11.15,0,0,1-.3,2.7,7.39,7.39,0,0,1-1,2.2,6.12,6.12,0,0,1-1.7,1.5,4.71,4.71,0,0,1-2.4.5,4.5,4.5,0,0,1-2.4-.6,4.93,4.93,0,0,1-1.7-1.8h-.1v2.1h-1.6V1.2Zm9.3,10.9a5.46,5.46,0,0,0-.6-1.8,3.74,3.74,0,0,0-1.2-1.3,3.56,3.56,0,0,0-1.9-.5,3.83,3.83,0,0,0-1.9.5,3.74,3.74,0,0,0-1.2,1.3,4.78,4.78,0,0,0-.6,1.8,13.66,13.66,0,0,0-.2,1.9,13.66,13.66,0,0,0,.2,1.9,5.63,5.63,0,0,0,.7,1.8,3,3,0,0,0,1.2,1.3,3.45,3.45,0,0,0,1.8.5,3.56,3.56,0,0,0,1.9-.5,3.74,3.74,0,0,0,1.2-1.3,4.78,4.78,0,0,0,.6-1.8,13.66,13.66,0,0,0,.2-1.9C129.46,13.4,129.46,12.7,129.36,12.1Z"/></g></g></g></g></g><path id="_Path_" data-name="&lt;Path&gt;" class="cls-3" d="M4.66,9.2a2.2,2.2,0,0,1-.8-.1,4.63,4.63,0,0,1-3-1.9,4.58,4.58,0,0,1-.8-3.4A4.79,4.79,0,0,1,4.66,0a2.2,2.2,0,0,1,.8.1,4.49,4.49,0,0,1,3.7,5.3,4.6,4.6,0,0,1-4.5,3.8Z"/></g></g></g></svg>